<?xml version="1.0" encoding="UTF-8"?>
<svg id="Layer_2" data-name="Layer 2" xmlns="http://www.w3.org/2000/svg" viewBox="0 0 342.03 432.89">
  <defs>
    <style>
      .cls-1 {
        fill: #7b36ff;
      }
    </style>
  </defs>
  <g id="Layer_1-2" data-name="Layer 1">
    <g>
      <polygon class="cls-1" points="342.03 87.07 176.1 182.67 176.1 432.89 0 331.22 0 110.42 191.23 0 207.08 9.17 45.54 102.24 40.84 104.96 40.84 188.17 66.75 203.34 67.63 121.04 234.4 24.95 252.05 35.11 84.67 131.59 84.67 329.38 111.99 345.32 111.99 147.37 279.37 50.89 297.02 61.09 130.36 157.11 130.36 354.95 157.68 370.84 157.68 172.89 324.38 76.87 342.03 87.07"/>
      <polygon class="cls-1" points="270.14 164.27 270.14 184.77 222.26 212.35 222.26 274.07 203.89 285.32 203.89 202.45 270.14 164.27"/>
    </g>
  </g>
</svg>