<?xml version="1.0" encoding="UTF-8"?>
<svg xmlns="http://www.w3.org/2000/svg" viewBox="0 0 220.68 257.61" fill="#ffffff">
  <polygon points="203.54 51.82 104.79 108.71 104.79 257.61 0 197.11 0 65.71 113.8 0 123.23 5.46 27.1 60.84 24.31 62.46 24.31 111.98 39.72 121.01 40.24 72.03 139.49 14.85 150 20.9 50.38 78.31 50.38 196.01 66.64 205.5 66.64 87.7 166.25 30.29 176.76 36.36 77.58 93.49 77.58 211.23 93.84 220.68 93.84 102.88 193.04 45.75 203.54 51.82"/>
  <polygon points="160.76 97.75 160.76 109.96 132.27 126.37 132.27 163.09 121.33 169.8 121.33 120.47 160.76 97.75"/>
</svg>
