<?xml version="1.0" encoding="UTF-8"?>
<svg id="Layer_2" data-name="Layer 2" xmlns="http://www.w3.org/2000/svg" viewBox="0 0 1426.49 257.61">
  <defs>
    <style>
      .cls-1 {
        fill: #7b36ff;
      }

      .cls-2 {
        fill: #020e2d;
      }
    </style>
  </defs>
  <g id="Layer_1-2" data-name="Layer 1">
    <g>
      <g>
        <polygon class="cls-1" points="203.54 51.82 104.79 108.71 104.79 257.61 0 197.11 0 65.71 113.8 0 123.23 5.46 27.1 60.84 24.31 62.46 24.31 111.98 39.72 121.01 40.24 72.03 139.49 14.85 150 20.9 50.38 78.31 50.38 196.01 66.64 205.5 66.64 87.7 166.25 30.29 176.76 36.36 77.58 93.49 77.58 211.23 93.84 220.68 93.84 102.88 193.04 45.75 203.54 51.82"/>
        <polygon class="cls-1" points="160.76 97.75 160.76 109.96 132.27 126.37 132.27 163.09 121.33 169.8 121.33 120.47 160.76 97.75"/>
      </g>
      <g>
        <path class="cls-2" d="M1403.78,115.06c0-6.45,4.9-11.35,11.35-11.35s11.35,4.9,11.35,11.35-4.9,11.35-11.35,11.35-11.35-4.9-11.35-11.35M1424.49,115.06c0-5.38-4.04-9.44-9.35-9.44s-9.38,4.07-9.38,9.44,4.07,9.44,9.38,9.44,9.35-4.07,9.35-9.44M1408.84,115.06c0-3.59,2.74-6.33,6.36-6.33,3.02,0,5.47,1.91,6.11,4.61h-2.26c-.57-1.5-2.04-2.48-3.85-2.48-2.39,0-4.16,1.84-4.16,4.2s1.78,4.2,4.16,4.2c1.81,0,3.28-.98,3.85-2.48h2.26c-.63,2.7-3.09,4.61-6.11,4.61-3.62,0-6.36-2.74-6.36-6.33"/>
        <polygon class="cls-2" points="233.92 103.71 233.92 122.33 274.98 122.33 274.98 198.25 296.61 198.25 296.61 122.33 337.92 122.33 337.92 103.71 233.92 103.71"/>
        <path class="cls-2" d="M440.94,164.62c15.64-3.64,26.31-13.64,26.31-29.72,0-20.53-17.39-31.2-40.49-31.2h-65.25v94.54h21.49v-32.13h34.17l27.15,32.13h25.81l-29.17-33.63ZM382.85,148.27v-26.47h42.7c11.32,0,19.69,2.71,19.69,13.23s-8.37,13.23-19.69,13.23h-42.7Z"/>
        <path class="cls-2" d="M562.99,103.71h-23.62l-50.11,94.54h23.1l38.63-76.03,16.67.11-5.89,12.91c-1.23,2.71-1.17,5.83.18,8.47l27.78,54.54h23.37l-50.11-94.54Z"/>
        <path class="cls-2" d="M714.83,167.19c-7,10.8-17.39,15.39-31.47,15.39-22.4,0-37.27-10.8-37.27-31.6s14.87-31.6,37.27-31.6c14.07,0,24.33,4.73,31.08,15.26l19.85-9.87c-8.64-13.1-26.88-24.03-50.66-24.03-36.45,0-59.55,18.78-59.55,50.25s23.1,50.25,58.62,50.25c24.71,0,42.95-10.8,51.86-24.17l-19.74-9.87Z"/>
        <polygon class="cls-2" points="781.47 180.15 781.47 159.35 843.75 159.35 843.75 141.25 781.47 141.25 781.47 121.81 856.03 121.81 856.03 103.71 760.01 103.71 760.01 198.25 857.39 198.25 857.39 180.15 781.47 180.15"/>
        <polygon class="cls-2" points="972.14 103.71 972.14 140.84 907.71 140.84 907.71 103.71 886.08 103.71 886.08 198.25 907.71 198.25 907.71 159.76 972.14 159.76 972.14 198.25 993.74 198.25 993.74 103.71 972.14 103.71"/>
        <path class="cls-2" d="M1082.37,100.73c-36.88,0-60.12,18.64-60.12,50.25s23.24,50.25,60.12,50.25,60.12-18.64,60.12-50.25-23.24-50.25-60.12-50.25M1082.37,182.58c-23.51,0-38.08-11.35-38.08-31.6s14.71-31.6,38.08-31.6,38.08,11.35,38.08,31.6-14.71,31.6-38.08,31.6"/>
        <polygon class="cls-2" points="1192.67 179.63 1192.67 103.71 1171.07 103.71 1171.07 198.25 1259.52 198.25 1259.52 179.63 1192.67 179.63"/>
        <path class="cls-2" d="M1333.48,103.71h-50.25v94.54h50.25c35.65,0,58.48-17.83,58.48-47.27s-22.83-47.27-58.48-47.27M1331.86,179.88h-27.01v-57.8h27.01c22.69,0,38.08,9.46,38.08,28.9s-15.39,28.9-38.08,28.9"/>
      </g>
    </g>
  </g>
</svg>